<?xml version="1.0" encoding="UTF-8"?>
<!-- Generator: visioncortex VTracer 0.6.12 -->
<svg version="1.1" xmlns="http://www.w3.org/2000/svg" width="125" height="208">
<path d="M0 0 C-0.69 0.401 -1.379 0.802 -2.09 1.215 C-17.061 10.272 -26.312 22.169 -30.551 39.215 C-32.833 53.362 -31.041 66.194 -22.629 78 C-16.392 85.658 -7.799 90.605 2 92 C13.88 93.114 24.233 90.237 33.805 83.051 C39.344 77.876 43.343 70.621 44 63 C44.071 56.055 43.264 49.651 39 44 C36.146 41.141 33.148 38.529 30 36 C30.66 35.67 31.32 35.34 32 35 C39.583 38.189 44.661 43.14 49 50 C49.434 50.665 49.869 51.33 50.316 52.016 C54.525 59.699 54.26 69.611 52.305 77.973 C49.838 84.678 45.923 90.741 40.25 95.125 C37.438 97.468 36.677 99.507 36 103 C35.666 107.024 35.63 111.027 35.625 115.062 C35.601 116.138 35.576 117.214 35.551 118.322 C35.518 127.104 35.518 127.104 37.965 130.059 C38.636 130.699 39.308 131.34 40 132 C41.141 135.651 41.343 137.246 39.75 140.75 C37.029 144.249 37.029 144.249 35 145 C31.802 144.8 29.726 144.576 27.188 142.562 C24.736 139.337 24.537 137.016 25 133 C25.826 132.198 26.653 131.396 27.504 130.57 C31.493 126.005 30.532 120.35 30.312 114.625 C30.29 113.507 30.267 112.39 30.244 111.238 C30.185 108.491 30.103 105.746 30 103 C10.246 107.075 10.246 107.075 3.688 115.812 C-4.185 129.406 -3.23 147.072 -3.659 162.294 C-3.857 169.231 -4.278 176.097 -5 183 C-5.33 183 -5.66 183 -6 183 C-7.46 174.618 -8.248 166.301 -8.711 157.809 C-8.766 156.809 -8.822 155.809 -8.879 154.779 C-9.106 150.617 -9.326 146.455 -9.526 142.292 C-11.112 109.959 -11.112 109.959 -22.625 98.363 C-25.061 96.215 -27.617 94.281 -30.234 92.359 C-39.159 85.711 -45.89 77.209 -48 66 C-49.099 50.157 -45.986 36.089 -35.895 23.34 C-33.672 20.804 -31.382 18.386 -29 16 C-28.385 15.374 -27.77 14.747 -27.137 14.102 C-21.642 8.901 -15.133 5.352 -8.502 1.806 C-7.243 1.131 -6.002 0.423 -4.766 -0.293 C-3 -1 -3 -1 0 0 Z " fill="#000000" transform="translate(60,13)"/>
<path d="M0 0 C3.096 3.012 4.893 5.628 5 10 C3.767 13.021 2.473 15.437 0.375 17.938 C-3.732 24.099 -2.363 34.599 -2.605 41.727 C-2.643 42.717 -2.68 43.707 -2.719 44.727 C-2.734 45.173 -2.734 45.173 -2.811 47.432 C-3.002 50.024 -3.437 52.465 -4 55 C-4.33 55 -4.66 55 -5 55 C-5.055 54.027 -5.111 53.053 -5.168 52.05 C-5.375 48.425 -5.586 44.8 -5.8 41.176 C-5.891 39.609 -5.981 38.043 -6.07 36.476 C-6.198 34.22 -6.331 31.963 -6.465 29.707 C-6.503 29.011 -6.542 28.315 -6.582 27.598 C-6.799 24.003 -7.016 20.482 -8 17 C-10 15.812 -10 15.812 -12 15 C-13.609 11.782 -13.5 8.527 -13 5 C-9.542 -0.604 -6.324 -1.807 0 0 Z " fill="#000000" transform="translate(72,46)"/>
</svg>
