<svg xmlns="http://www.w3.org/2000/svg" viewBox="0 0 200 200" role="img" aria-labelledby="title desc">
<title id="title">Arkeon</title><desc id="desc">Fanghaken und Kettenglieder</desc>
<defs><linearGradient id="gold" x1="0" y1="0" x2="1" y2="1"><stop stop-color="#eed09a"/><stop offset=".48" stop-color="#b88a49"/><stop offset="1" stop-color="#8d6033"/></linearGradient><linearGradient id="ember" x1="0" y1="0" x2=".7" y2="1"><stop stop-color="#b58059"/><stop offset="1" stop-color="#68473a"/></linearGradient></defs>
<g fill="url(#gold)" stroke="#654731" stroke-width="3.5" stroke-linecap="round" stroke-linejoin="round"><path d="M104 47v70c0 46-58 61-69 17l-5 10 1-31 28 14-13-1c11 26 37 10 37-8V47Z"/><path d="M95 70c31 1 64 12 69 47l12-7-8 27-22-18 10 1c-4-22-32-32-61-30Z" fill="url(#ember)"/><rect x="83" y="14" width="24" height="37" rx="12"/><path d="M96 23v20M79 164l-11 16m23-14-7 18" fill="none"/></g>
</svg>
