<svg xmlns="http://www.w3.org/2000/svg" viewBox="0 0 200 200" role="img" aria-labelledby="title desc">
<title id="title">Dagon</title><desc id="desc">Flammenkrone des Usurpators</desc>
<defs><linearGradient id="gold" x1="0" y1="0" x2="1" y2="1"><stop stop-color="#eed09a"/><stop offset=".48" stop-color="#b88a49"/><stop offset="1" stop-color="#8d6033"/></linearGradient><linearGradient id="ember" x1="0" y1="0" x2=".7" y2="1"><stop stop-color="#e58d44"/><stop offset="1" stop-color="#8b342a"/></linearGradient></defs>
<g fill="url(#gold)" stroke="#654731" stroke-width="3.5" stroke-linecap="round" stroke-linejoin="round"><path d="M100 17c9 27 36 24 42 51 16-1 25-14 24-23 38 50 6 95-20 112H56C14 127 25 89 42 67c-2 24 13 30 21 32-8-40 25-48 37-82Z" fill="url(#ember)"/><path d="m42 103 36 21 22-38 23 38 35-21-14 58H56Z"/><path d="M57 171h86v12H57Z"/><path d="m91 138 9-12 10 12-10 13Z" fill="url(#ember)"/></g>
</svg>
